<svg version="1.1" xmlns="http://www.w3.org/2000/svg" style="display: block;" viewBox="0 0 2048 2048" width="2048" height="2048" preserveAspectRatio="none">
<path transform="translate(0,0)" fill="rgb(15,86,101)" d="M 919.948 973.705 C 935.631 953.506 953.062 935.896 970.882 917.9 C 1031.27 856.915 1069.83 883.042 1119.74 938.778 C 1139.65 961.363 1156.72 983.263 1175.09 1006.97 C 1170.85 1010.7 1166.04 1015.13 1161.68 1018.59 C 1169.15 1022.25 1185.99 1023.7 1193.84 1029.83 C 1197.29 1032.51 1201.24 1035.96 1201.55 1040.48 C 1203.14 1064.09 1202.39 1089.21 1202.47 1112.96 C 1202.58 1145.46 1202.54 1177.81 1202.24 1210.27 C 1202.2 1213.75 1201.32 1221.99 1199.11 1224.38 C 1190.07 1234.13 1167.83 1238.06 1155.45 1239.61 C 1124.05 1243.54 1062.03 1244.56 1036.95 1225.22 C 1015.5 1240.78 976.96 1242.21 951.162 1241.93 C 929.971 1241.69 886.45 1239.64 872.04 1222.25 C 868.971 1210.2 868.997 1043.33 872.058 1036.62 C 877.67 1024.33 898.627 1023.98 909.561 1019.31 C 910.062 1019.09 910.558 1018.87 911.057 1018.65 C 905.718 1014.46 900.503 1009.59 895.432 1005.04 C 902.206 995.795 912.269 981.719 919.948 973.705 z"/>
<path transform="translate(0,0)" fill="rgb(229,173,28)" d="M 919.948 973.705 C 935.631 953.506 953.062 935.896 970.882 917.9 C 1031.27 856.915 1069.83 883.042 1119.74 938.778 C 1117.09 944.461 1107.09 950.864 1101.94 954.597 C 1051.98 990.84 981.636 1001.56 924.339 977.156 C 922.383 976.323 921.052 975.55 919.948 973.705 z"/>
<path transform="translate(0,0)" fill="rgb(206,143,12)" d="M 1119.74 938.778 C 1139.65 961.363 1156.72 983.263 1175.09 1006.97 C 1170.85 1010.7 1166.04 1015.13 1161.68 1018.59 C 1159.45 1019.5 1139.17 1016.88 1135 1016.68 C 1104.61 1015.21 1062.48 1015.6 1036.48 1032.51 C 1010.79 1015.54 967.596 1015.42 937.366 1016.38 C 930.731 1016.59 916.549 1019.4 911.057 1018.65 C 905.718 1014.46 900.503 1009.59 895.432 1005.04 C 902.206 995.795 912.269 981.719 919.948 973.705 C 921.052 975.55 922.383 976.323 924.339 977.156 C 981.636 1001.56 1051.98 990.84 1101.94 954.597 C 1107.09 950.864 1117.09 944.461 1119.74 938.778 z"/>
<path transform="translate(0,0)" fill="rgb(62,177,177)" d="M 879.73 1169.15 C 909.53 1185.54 960.952 1184.82 994.212 1180.49 C 1009.12 1177.75 1018.35 1176.17 1032.1 1169.59 C 1032.14 1215.94 1042.68 1223.33 991.548 1230.96 C 960.105 1233.49 911.235 1236.48 883.164 1219.86 C 877.513 1216.51 879.687 1177.29 879.73 1169.15 z"/>
<path transform="translate(0,0)" fill="rgb(35,131,138)" d="M 994.212 1180.49 C 1009.12 1177.75 1018.35 1176.17 1032.1 1169.59 C 1032.14 1215.94 1042.68 1223.33 991.548 1230.96 C 995.055 1226.5 996.82 1222.31 996.442 1216.63 C 995.987 1209.77 998.855 1184.44 994.212 1180.49 z"/>
<path transform="translate(0,0)" fill="rgb(62,177,177)" d="M 879.748 1110.49 C 911.388 1126.12 960.809 1127.01 995.299 1121.49 C 1008.74 1119.57 1019.89 1116.79 1031.98 1110.66 L 1032.08 1158.27 C 1023.06 1166.68 1008.5 1169.14 996.575 1171.27 C 964.7 1175.69 906.467 1177.62 879.835 1158.4 C 879.076 1144.8 879.738 1124.6 879.748 1110.49 z"/>
<path transform="translate(0,0)" fill="rgb(35,131,138)" d="M 995.299 1121.49 C 1008.74 1119.57 1019.89 1116.79 1031.98 1110.66 L 1032.08 1158.27 C 1023.06 1166.68 1008.5 1169.14 996.575 1171.27 C 996.356 1163.03 997.3 1126.45 995.299 1121.49 z"/>
<path transform="translate(0,0)" fill="rgb(62,177,177)" d="M 1152.58 1230.82 C 1126.67 1233.3 1108.01 1233.63 1082.04 1230.79 C 1030.86 1225.2 1040.69 1211.93 1041.32 1169.58 C 1072.33 1185.34 1121.22 1185.18 1155.23 1180.45 C 1168.72 1177.72 1180.8 1176.38 1193.14 1169.35 C 1193.34 1215.19 1203.9 1224.2 1152.58 1230.82 z"/>
<path transform="translate(0,0)" fill="rgb(35,131,138)" d="M 1155.23 1180.45 C 1168.72 1177.72 1180.8 1176.38 1193.14 1169.35 C 1193.34 1215.19 1203.9 1224.2 1152.58 1230.82 C 1153.98 1229.54 1155.98 1227.77 1156.63 1226.03 C 1159.07 1219.52 1159.18 1187.21 1157.55 1181.36 L 1155.23 1180.45 z"/>
<path transform="translate(0,0)" fill="rgb(62,177,177)" d="M 1041.11 1110.38 C 1072.66 1126.5 1122.57 1126.67 1157.24 1121.46 C 1170.61 1119.04 1181.05 1116.93 1193.12 1110.54 C 1193.08 1152.66 1204.85 1163.13 1158.22 1171.07 C 1126.91 1176.87 1068.44 1176.6 1041.25 1158.79 C 1040.52 1144.72 1041.12 1124.9 1041.11 1110.38 z"/>
<path transform="translate(0,0)" fill="rgb(35,131,138)" d="M 1157.24 1121.46 C 1170.61 1119.04 1181.05 1116.93 1193.12 1110.54 C 1193.08 1152.66 1204.85 1163.13 1158.22 1171.07 C 1158.2 1163.48 1159.3 1126.29 1157.24 1121.46 z"/>
<path transform="translate(0,0)" fill="rgb(62,177,177)" d="M 879.721 1052.06 C 910.004 1068.21 962.463 1067.24 996.099 1062.82 C 1010.06 1060.58 1019.06 1058.36 1032.02 1052.3 L 1031.94 1100.18 C 1019.15 1108.3 1010.3 1109.99 995.305 1112.79 C 960.676 1116.64 910.122 1118.93 879.907 1099.91 C 879.27 1084.88 879.703 1067.28 879.721 1052.06 z"/>
<path transform="translate(0,0)" fill="rgb(35,131,138)" d="M 1032.02 1052.3 L 1031.94 1100.18 C 1019.15 1108.3 1010.3 1109.99 995.305 1112.79 C 997.11 1108.85 996.156 1070.14 996.099 1062.82 C 1010.06 1060.58 1019.06 1058.36 1032.02 1052.3 z"/>
<path transform="translate(0,0)" fill="rgb(62,177,177)" d="M 1158.14 1062.71 C 1172.57 1060.25 1179.85 1058.39 1193.16 1052.19 L 1193.09 1099.86 C 1181.82 1107.95 1171.64 1109.83 1158.1 1112.45 C 1125.4 1116.38 1069.13 1119.47 1041.22 1099.44 C 1040.68 1084.62 1041.1 1067.21 1041.09 1052.18 C 1072.71 1068.31 1123.37 1067.34 1158.14 1062.71 z"/>
<path transform="translate(0,0)" fill="rgb(35,131,138)" d="M 1158.14 1062.71 C 1172.57 1060.25 1179.85 1058.39 1193.16 1052.19 L 1193.09 1099.86 C 1181.82 1107.95 1171.64 1109.83 1158.1 1112.45 L 1158.14 1062.71 z"/>
<path transform="translate(0,0)" fill="rgb(62,177,177)" d="M 1100.01 1025.41 C 1118.04 1023.62 1179.77 1025.59 1190.57 1040.1 C 1190.38 1052.09 1142.34 1055.58 1132.75 1056.26 C 1105.06 1058.05 1063.97 1056.58 1040.11 1040.71 C 1057.42 1028.81 1079.62 1027.01 1100.01 1025.41 z"/>
<path transform="translate(0,0)" fill="rgb(62,177,177)" d="M 938.837 1025.42 C 952.166 1024.41 1032.59 1025.32 1028.99 1043.31 C 1020.84 1052 982.593 1055.56 970.752 1056.23 C 944.691 1057.81 900.435 1056.46 878.993 1040.59 C 895.822 1028.76 918.886 1026.91 938.837 1025.42 z"/>
<path transform="translate(0,0)" fill="rgb(229,173,28)" d="M 837.984 904.742 C 825.004 858.969 833.557 801.16 855.233 759.101 C 880.18 711.244 922.909 675.085 974.234 658.398 C 1027.84 641.392 1081.98 646.629 1131.68 672.584 C 1179.55 697.817 1215.39 741.104 1231.23 792.851 C 1247.64 846.108 1242.29 903.695 1216.36 953.021 C 1212.55 960.144 1208.29 967.016 1203.61 973.594 C 1184.77 950.341 1166.48 927.272 1146.68 904.79 C 1126.29 883.109 1106.54 863.494 1079.38 850.139 C 997.625 809.95 928.653 896.499 881.933 952.517 L 866.57 971.028 C 853.316 951.939 844.013 927.036 837.984 904.742 z"/>
<path transform="translate(0,0)" fill="rgb(206,143,12)" d="M 1131.68 672.584 C 1179.55 697.817 1215.39 741.104 1231.23 792.851 C 1247.64 846.108 1242.29 903.695 1216.36 953.021 C 1212.55 960.144 1208.29 967.016 1203.61 973.594 C 1184.77 950.341 1166.48 927.272 1146.68 904.79 C 1155.16 901.399 1169.56 863.975 1172.52 854.792 C 1189.34 803.252 1182.51 746.912 1153.86 700.886 C 1148.24 692.062 1135.5 681.15 1131.68 672.584 z"/>
<path transform="translate(0,0)" fill="rgb(206,143,12)" d="M 837.984 904.742 C 841.943 907.765 845.848 913.96 849.04 918.161 C 857.173 928.864 870.247 945.519 881.933 952.517 L 866.57 971.028 C 853.316 951.939 844.013 927.036 837.984 904.742 z"/>
<path transform="translate(0,0)" fill="rgb(44,126,167)" d="M 602.889 957.771 C 605.399 957.965 609.573 958.668 611.165 960.822 C 619.115 971.572 625.053 986.774 631.379 998.466 C 651.026 1034.78 684.835 1102.55 723.25 1119.72 C 760.231 1136.24 804.828 1068.17 824.753 1044.48 C 829.251 1039.13 836.824 1026.66 843.044 1024.64 C 845.188 1023.92 847.54 1024.18 849.475 1025.35 C 858.092 1030.57 853.871 1039.91 849.267 1045.99 C 808.178 1101.09 747.751 1190.52 679.325 1111.65 C 649.657 1077.45 628.594 1039.13 608.467 998.741 C 603.48 988.733 595.793 976.841 595.57 965.607 C 595.563 962.188 600.277 959.337 602.889 957.771 z"/>
<path transform="translate(0,0)" fill="rgb(44,126,167)" d="M 1469.89 975.893 C 1473.3 975.771 1477.06 975.656 1479.69 978.204 C 1481.94 980.39 1482.5 983.156 1482.19 986.175 C 1479.8 1008.87 1418.19 1075.66 1399.21 1091.51 C 1377.76 1109.42 1352.46 1124.7 1323.47 1121.87 C 1279.24 1117.56 1244.19 1075.67 1217.69 1043.49 C 1211.72 1036.23 1205.15 1026.34 1213.44 1017.75 C 1216.5 1016.81 1218.66 1016.22 1221.75 1018.56 C 1229.75 1024.64 1237.85 1035.7 1244.27 1043.4 C 1262.35 1065.1 1296.22 1099.58 1326.01 1101.75 C 1377.5 1102.04 1417.56 1044.82 1446.58 1008.28 C 1454.12 998.779 1461.53 982.541 1469.89 975.893 z"/>
<path transform="translate(0,0)" fill="rgb(229,173,28)" d="M 781.102 569.823 C 783.126 570.013 787.185 570.415 788.658 571.876 C 817.869 600.889 847.307 630.13 875.461 660.169 C 882.236 667.398 876.774 673.804 869.926 677.739 C 867.562 677.452 864.396 677.069 862.6 675.33 C 833.235 646.908 804.604 617.277 776.518 587.573 C 769.387 580.032 773.882 574.206 781.102 569.823 z"/>
<path transform="translate(0,0)" fill="rgb(229,173,28)" d="M 1288.09 569.839 C 1288.69 569.91 1289.3 569.97 1289.9 570.053 C 1293.32 570.527 1296.94 572.392 1298.73 575.473 C 1300.03 577.722 1300.18 580.358 1299.41 582.805 C 1297.5 588.947 1221.29 665.83 1211.91 673.996 C 1210 675.66 1208.24 676.62 1205.94 677.628 C 1202.28 677.171 1198.16 675.709 1195.89 672.613 C 1194.34 670.491 1193.92 668.177 1194.45 665.59 C 1195.66 659.807 1280.14 573.776 1288.09 569.839 z"/>
<path transform="translate(0,0)" fill="rgb(44,126,167)" d="M 811.321 988.073 L 812.164 988.766 C 812.708 996.138 800.406 1040.79 798.186 1052.49 L 783.027 1035.2 C 770.411 1048.35 758.493 1062.96 745.61 1075.88 C 740.964 1080.55 739.799 1081.6 733.588 1081.51 C 731.473 1079.53 728.843 1076.94 728.647 1073.84 C 728.177 1066.45 762.903 1032.82 770.181 1025.09 C 764.888 1020.89 758.11 1016.22 752.558 1012.18 C 768.743 1004.16 794.04 994.927 811.321 988.073 z"/>
<path transform="translate(0,0)" fill="rgb(229,173,28)" d="M 1281.04 844.19 C 1281.46 844.129 1283.5 843.792 1283.84 843.792 C 1324.47 843.753 1365.29 843.06 1405.89 844.009 C 1416.77 844.263 1417.08 856.377 1409.72 863.445 C 1409.26 863.524 1407.12 863.953 1406.76 863.955 C 1365.77 864.117 1324.5 864.854 1283.55 863.715 C 1274.58 863.465 1273.59 851.188 1281.04 844.19 z"/>
<path transform="translate(0,0)" fill="rgb(229,173,28)" d="M 663.891 844.126 C 664.536 844.036 666.078 843.798 666.995 843.796 C 706.874 843.733 746.852 843.381 786.715 843.877 C 798.858 844.028 800.28 856.383 791.204 863.799 C 790.427 863.881 789.651 863.963 788.874 864.044 C 748.497 864.106 707.951 864.757 667.597 863.874 C 657.191 863.646 655.612 851.614 663.891 844.126 z"/>
<path transform="translate(0,0)" fill="rgb(229,173,28)" d="M 1034 473.854 C 1040.45 474.194 1045.92 476.642 1046.06 484.008 C 1046.73 518.903 1046.26 553.849 1046.44 588.752 C 1046.47 594.779 1046.71 601.079 1045.93 606.943 C 1045.46 610.493 1041.76 612.491 1039.18 614.169 C 1031.87 613.968 1026.52 611.855 1026.43 603.264 C 1025.99 563.023 1025.77 522.61 1026.47 482.385 C 1026.53 478.353 1030.96 475.741 1034 473.854 z"/>
<path transform="translate(0,0)" fill="rgb(44,126,167)" d="M 1254.87 991.422 C 1263.85 993.329 1305.26 1012.45 1315.81 1017.18 C 1309.54 1020.61 1303.18 1024.57 1297.02 1028.27 C 1308.2 1042.13 1324.48 1056.35 1335.13 1071.1 C 1338.33 1075.53 1338.24 1077.27 1337.26 1082.46 C 1335.17 1083.66 1332.33 1085.58 1329.83 1085.53 C 1322.38 1085.38 1291.57 1047.04 1284.58 1039.28 L 1270.34 1055.7 C 1264.95 1034.33 1259.79 1012.91 1254.87 991.422 z"/>
<path transform="translate(0,0)" fill="rgb(44,126,167)" d="M 1173.93 964.768 C 1182.54 966.987 1199.57 988.576 1199.52 997.404 C 1198.32 1001.06 1197.33 1001.39 1194.24 1003.66 C 1185.55 1001.99 1168.34 979.38 1168.44 970.603 C 1170.53 966.355 1169.7 967.752 1173.93 964.768 z"/>
<path transform="translate(0,0)" fill="rgb(44,126,167)" d="M 1033.46 854.434 C 1040.77 853.999 1051.5 853.712 1054.12 862.805 C 1051.77 871.684 1035 869.492 1027.59 869.651 C 1021.24 870.906 1013.15 873.42 1009.22 866.167 C 1010.41 854.823 1024.92 855.095 1033.46 854.434 z"/>
<path transform="translate(0,0)" fill="rgb(44,126,167)" d="M 930.03 919.671 C 933.751 920.48 933.599 920.532 936.551 922.595 C 937.839 924.969 938.48 925.143 938.111 928.006 C 937.178 935.247 919.295 953.693 913.971 957.678 C 892.885 952.096 922.002 925.604 930.03 919.671 z"/>
<path transform="translate(0,0)" fill="rgb(44,126,167)" d="M 885.135 971.779 C 890.604 972.931 891.934 973.099 893.831 978.506 C 893.094 987.036 877.999 1004.72 871.94 1010.01 C 867.749 1009.63 867.496 1009.71 864.241 1007.28 C 863.207 1005.31 862.745 1005.2 862.716 1003.13 C 862.61 995.708 879.686 976.513 885.135 971.779 z"/>
<path transform="translate(0,0)" fill="rgb(44,126,167)" d="M 979.622 873.886 C 1004.69 876.299 968.053 902.126 961.811 907.572 C 957.446 907.275 956.483 906.928 953.218 904.457 C 948.797 893.785 971.882 879.448 979.622 873.886 z"/>
<path transform="translate(0,0)" fill="rgb(44,126,167)" d="M 1129 912.622 C 1131.69 912.723 1134.21 912.696 1136.61 915.015 C 1143.15 921.314 1156.42 933.393 1157.5 942.953 C 1157.8 945.648 1154.93 948.151 1153.14 949.874 C 1144.02 948.713 1127.22 928.454 1124.96 919.532 C 1125.91 914.984 1125.49 916.484 1129 912.622 z"/>
<path transform="translate(0,0)" fill="rgb(44,126,167)" d="M 1079.83 866.851 C 1088.06 869.103 1110.13 883.44 1110.43 893.363 C 1109.25 897.017 1108.31 897.347 1105.27 899.665 C 1098.22 898.405 1074.11 881.81 1074.52 872.706 C 1076.04 869.126 1076.65 868.977 1079.83 866.851 z"/>
</svg>